<svg width="433" height="90" viewBox="0 0 433 90" fill="none" xmlns="http://www.w3.org/2000/svg">
<path d="M16.218 47.834C13.746 47.834 12.304 46.289 10.553 42.89C10.347 42.478 10.038 41.86 9.935 41.654L10.965 40.109C11.274 40.006 11.892 40.006 12.304 39.903C13.643 39.697 13.849 39.594 14.467 39.182C15.6 38.667 16.836 37.225 17.969 35.989C20.235 33.517 22.707 30.427 24.973 27.44C28.372 23.32 31.668 19.2 35.582 15.183C39.084 11.681 43.822 8.48799 48.148 5.60399C49.796 4.471 50.414 4.059 51.444 3.338C51.856 3.029 52.886 2.71999 53.813 2.71999C56.182 2.71999 58.139 4.67699 58.139 7.149C57.109 8.48799 56.388 9.312 55.461 9.92999C54.431 10.651 52.989 11.681 51.856 12.505C45.47 17.037 39.496 21.26 34.552 27.543C33.11 29.397 31.256 31.663 29.608 33.62C26.415 37.534 23.325 41.345 20.235 45.568C19.308 46.907 17.763 47.834 16.218 47.834ZM9.317 89.755C6.742 89.755 4.991 88.416 4.991 86.047C4.991 85.738 4.991 85.429 5.197 84.708C4.991 79.764 4.785 74.82 4.682 69.876C4.476 64.932 4.27 59.988 4.064 55.044C3.961 52.984 4.167 51.13 2.622 50.512C1.592 50.203 0.974 49.276 0.974 48.143C0.974 47.834 0.974 47.628 1.18 47.422C2.416 45.774 3.034 43.508 3.034 40.727C3.034 37.431 2.519 34.341 1.901 31.148C1.386 28.058 0.871 24.865 0.871 21.775C0.871 19.612 1.695 17.243 2.416 15.183C2.828 13.844 2.931 13.329 3.24 12.505C3.24 12.402 3.343 11.99 3.446 11.681C3.961 9.724 4.27 8.9 4.991 7.87C5.506 7.149 6.948 6.428 7.772 5.913C8.287 5.707 8.287 5.707 8.802 5.398L11.171 6.016C11.171 6.325 11.274 6.428 11.48 7.04599C11.995 8.179 12.098 8.694 12.098 9.312L11.995 9.827C9.729 15.492 8.699 20.127 8.699 24.453C8.699 26.616 9.214 28.676 9.729 30.839C10.244 33.208 10.862 35.783 10.862 38.255C10.862 39.182 10.759 40.109 10.759 41.036C10.656 41.86 10.656 42.787 10.656 43.611C10.656 45.568 11.068 46.186 12.51 46.804C13.952 47.422 14.982 48.04 17.145 49.585C17.969 50.203 18.999 50.924 19.617 51.233C20.853 52.057 21.677 52.572 23.634 53.705C26.621 55.559 29.917 57.516 32.698 59.473C34.758 60.812 36.303 61.945 39.702 64.623C41.968 66.374 44.337 68.331 46.397 69.773C48.045 70.803 49.693 71.833 54.122 74.511C64.628 80.794 68.336 83.369 68.336 84.811C68.336 86.974 65.864 89.137 63.598 89.137C61.332 89.137 58.448 87.077 55.77 85.12C54.122 83.884 52.268 82.545 51.238 82.03C45.985 79.558 41.865 76.262 37.745 72.966C35.994 71.524 33.934 69.876 32.286 68.64C28.681 66.065 25.282 64.005 21.574 61.842C19.72 60.606 17.557 59.37 15.806 58.34C15.085 57.825 14.776 57.619 13.849 57.001C13.334 56.589 12.819 56.177 12.304 55.868C12.304 61.739 12.51 67.61 12.716 73.481C12.922 77.807 13.025 82.133 13.128 86.459C13.128 88.004 10.965 89.755 9.317 89.755ZM234.636 77.807C233.4 77.807 231.649 76.365 231.649 75.232C231.649 74.614 231.855 74.099 232.164 73.584C233.194 71.936 233.709 69.876 233.709 67.713C233.709 64.52 232.679 61.636 231.546 58.443C231.237 57.516 230.825 56.486 230.619 55.662C230.516 55.353 230.413 54.838 230.413 54.426C230.413 52.057 231.34 49.173 232.267 46.495C233.091 44.229 233.812 42.066 234.018 39.8C234.327 36.607 234.533 33.208 234.533 29.809C234.533 27.852 234.43 25.998 234.327 24.041C234.224 22.908 233.915 21.981 233.091 20.127C232.37 18.582 231.546 16.625 231.546 14.874C231.546 10.239 231.546 8.48799 234.018 7.252C235.769 6.428 239.477 7.97299 239.889 9.621C240.198 11.063 240.507 12.196 241.331 14.668C242.567 19.097 244.009 23.835 244.009 28.676C244.009 29.191 243.803 31.045 243.597 32.899C243.185 35.68 243.082 36.813 243.082 37.225C243.082 36.71 243.082 37.019 242.567 37.019L241.434 37.328C244.73 33.826 249.571 32.796 253.691 31.869C256.678 31.251 257.914 30.942 259.562 30.324C266.257 27.749 271.51 23.732 276.042 17.758C277.278 16.11 279.544 14.462 281.089 14.462C285.209 14.462 287.784 19.612 292.11 33.105C292.522 34.238 292.831 35.268 293.14 36.195C294.994 38.976 291.595 42.066 288.505 42.066C285.724 42.066 284.385 37.946 282.325 31.56C279.853 23.938 279.235 24.659 280.368 24.659C280.677 24.659 280.574 24.556 279.956 25.277C273.055 32.075 263.888 35.371 254.721 38.049C247.408 40.109 239.477 47.422 239.477 52.16C239.477 52.881 239.58 53.705 239.786 54.323C241.743 60.503 242.876 66.271 242.876 70.597C242.876 75.026 240.198 77.395 234.739 77.807H234.636ZM281.501 83.369C280.471 82.442 280.368 82.339 280.059 81.927C279.441 81.309 278.823 80.691 278.514 80.485C271.51 75.026 270.48 67.095 268.729 59.988C268.626 59.576 268.626 59.576 267.699 58.958C267.184 58.546 266.257 58.031 265.948 57.722C265.021 56.795 264.506 56.177 263.27 54.735C261.107 52.366 258.944 49.791 256.678 48.349C256.06 47.937 255.648 47.834 254.412 47.216C250.395 45.259 248.85 44.126 248.85 42.684C248.85 40.212 251.322 38.564 254.824 38.564H255.133C263.373 40.109 268.214 45.671 272.849 51.027C273.673 51.954 274.703 53.19 275.424 53.911C278.308 57.207 279.956 61.224 279.956 65.035C279.956 66.786 280.78 68.743 283.355 72.657C285.003 75.129 286.754 77.91 286.754 79.97C286.754 80.897 285.415 81.515 283.973 82.133C282.943 82.545 283.046 82.545 281.501 83.369Z" fill="#FA3C28"/>
<path d="M66.4554 83.575C63.9834 83.266 62.3354 81.721 62.3354 79.558C62.3354 79.352 62.3354 79.146 62.4384 78.734C62.4384 78.528 62.4384 78.322 62.4384 78.219C62.4384 77.704 62.6444 78.116 62.9534 78.322C62.7474 78.219 62.5414 78.116 62.4384 78.116L61.7174 76.983C62.3354 74.511 62.9534 71.73 63.5714 69.155C64.9104 62.872 66.2494 56.692 68.6184 50.615C68.9274 49.585 69.1334 48.658 69.1334 47.937C69.1334 46.907 68.9274 45.98 68.2064 44.126C68.0004 43.611 67.8974 43.302 67.7944 43.199C66.5584 40.212 66.0434 37.431 66.0434 34.444C66.0434 25.071 70.2664 15.904 74.2834 7.458C74.9014 6.222 77.1674 4.986 78.7124 4.986C80.3604 4.986 81.8024 6.737 82.2144 8.282C82.6264 9.621 82.9354 10.651 83.5534 13.02C85.9224 21.672 88.2914 30.118 94.6774 36.401C95.9134 37.534 96.5314 38.461 97.2524 40.006C98.0764 41.654 98.1794 41.757 99.4154 41.757L100.445 41.654C102.608 41.654 104.668 42.787 104.668 44.229C104.668 44.847 104.565 45.465 104.256 46.804C103.947 47.937 103.844 48.555 103.844 49.173C103.844 50.409 105.08 52.366 106.625 53.602C111.466 57.928 113.526 63.078 115.689 68.228C116.41 69.979 117.234 71.936 117.955 73.481L118.058 73.893L117.955 73.584C118.058 73.893 118.161 74.202 118.161 74.305C118.161 76.262 116.204 78.322 114.35 78.322C109.818 78.322 107.861 73.378 106.316 69.464C105.698 68.125 105.08 66.58 104.668 65.756C100.445 58.134 92.9264 48.761 91.4844 48.761C90.3514 48.761 89.3214 48.761 88.2914 48.761C87.0554 48.658 85.6134 48.658 83.6564 48.658C81.2874 48.658 79.5364 48.967 79.5364 49.07C79.5364 49.997 79.6394 50.924 79.7424 51.954C79.9484 52.881 80.0514 54.014 80.0514 55.044C80.0514 60.297 74.0774 83.575 66.6614 83.575H66.4554ZM78.6094 41.757C79.1244 41.757 79.6394 41.757 80.2574 41.757C80.8754 41.654 81.5964 41.654 82.4204 41.654L83.9654 42.684C83.9654 44.641 81.5964 41.757 84.6864 41.757C87.0554 41.757 87.4674 41.654 87.5704 41.242C87.1584 40.521 86.7464 40.109 86.0254 39.079C83.2444 35.165 80.2574 31.045 78.4034 26.41C77.8884 25.174 77.6824 24.247 77.1674 21.981C76.3434 18.788 75.9314 17.243 75.4164 16.522H77.8884C77.7854 16.728 77.6824 16.831 77.6824 16.934C77.3734 18.17 77.0644 19.612 76.7554 20.951C75.8284 25.071 74.9014 29.088 74.9014 33.311C74.9014 41.345 75.3134 41.757 78.6094 41.757ZM339.659 85.738C335.539 85.738 329.256 76.365 328.741 69.876C328.638 68.846 328.638 67.816 328.535 66.786C328.432 63.799 328.226 60.709 327.505 58.237L330.183 58.546C329.771 59.061 329.771 59.164 329.462 59.679L319.471 79.146C318.75 80.485 317.411 81.309 315.969 81.309C315.145 81.309 313.909 80.897 313.394 80.485H313.497C305.772 75.335 299.695 69.876 299.695 59.576C299.901 53.396 300.004 47.01 300.004 40.624C300.004 36.092 300.004 31.663 299.901 27.131C299.901 26.307 299.592 25.586 298.871 23.938C297.944 21.672 297.635 20.642 297.635 19.509C297.635 17.758 297.635 17.14 298.974 16.316C300.519 15.389 304.536 16.316 305.154 17.758C307.317 22.393 308.244 25.998 308.244 29.912C308.244 31.148 308.141 32.487 308.038 33.723C308.038 34.959 307.935 36.195 307.935 37.431C307.935 41.139 308.038 44.847 308.244 48.658C308.347 52.366 308.553 56.074 308.553 59.885C308.553 65.035 311.437 68.125 314.63 71.318C314.527 71.318 314.424 71.318 314.836 71.318C315.66 71.318 316.999 69.67 317.823 67.404C318.544 65.344 319.471 62.975 320.398 60.812C322.767 55.044 325.033 49.482 325.548 43.096C325.651 41.448 326.166 39.697 326.578 37.843C326.784 36.71 326.99 36.195 327.093 35.474C327.093 33.208 326.99 31.045 326.99 28.779C326.887 26.41 326.784 23.938 326.784 21.26C326.784 16.831 328.535 14.565 332.243 14.565C333.685 14.565 335.539 16.419 335.745 17.758V17.861C335.745 21.672 335.745 25.38 335.848 29.191C335.848 36.813 335.848 44.435 336.054 52.057C336.157 58.752 336.775 64.005 337.805 68.434C338.114 70.082 338.938 71.627 340.895 75.129C343.264 79.043 343.573 79.867 343.264 81C343.264 81.103 343.264 81.309 343.264 81.515C342.955 84.296 342.131 85.738 339.659 85.738Z" fill="#3783E1"/>
<path d="M173.234 61.636C174.264 62.872 174.985 64.314 174.985 65.344C174.985 66.992 173.337 68.331 171.586 68.331C169.423 68.331 165.509 64.829 159.02 59.061C153.973 54.529 151.81 52.778 150.883 52.263C148.617 50.821 146.763 49.997 142.231 48.143C141.304 47.731 140.274 47.319 139.347 46.907C139.347 47.01 139.45 47.01 139.45 47.113L139.347 46.804C140.377 49.482 144.806 63.284 144.806 66.065C144.806 70.185 143.158 72.863 139.759 73.069C137.287 73.275 134.506 70.803 134.815 68.537C134.918 67.919 135.536 67.095 136.154 66.477C135.845 65.447 135.433 64.005 134.609 60.503C132.034 50.615 129.562 42.684 129.459 42.684C126.781 41.139 125.957 39.594 125.957 36.298C125.957 35.886 123.176 27.955 123.279 27.955C124.103 27.955 124.103 27.646 123.485 28.367C122.455 29.603 121.322 30.221 119.88 30.221C118.232 30.221 116.378 27.955 116.378 26.41C116.378 24.659 120.189 20.127 122.764 18.891C127.502 16.522 134.609 16.316 139.45 16.316C149.441 16.316 156.857 18.376 156.857 21.878C156.857 23.217 154.282 26.513 147.278 34.238C144.6 37.328 143.158 39.079 142.437 39.903C143.261 40.212 143.982 40.418 144.394 40.624C154.9 45.877 167.672 55.147 173.234 61.636ZM134.918 34.856C135.845 34.856 137.287 33.517 144.806 24.35C144.703 24.144 144.085 24.041 142.643 24.041C142.025 24.041 141.304 24.041 140.789 24.144C140.274 24.144 139.862 24.144 139.45 24.144C138.42 24.247 136.978 24.247 135.639 24.35C130.901 24.453 129.562 24.659 129.562 25.071C129.562 25.792 130.283 27.44 132.034 31.045C132.446 31.766 132.961 32.693 133.167 33.105C133.682 34.341 134.3 34.856 134.918 34.856ZM415.427 89.652C414.603 89.652 413.676 89.549 413.264 89.343L413.573 89.446C405.642 87.077 397.402 84.502 389.677 81.824C388.338 81.412 387.102 81.206 385.66 81.206C383.6 81.206 381.437 81.721 378.862 82.545C373.197 84.193 367.12 85.635 360.94 86.459H360.734C357.541 86.459 354.554 82.545 354.554 79.146C354.554 78.528 354.554 78.013 354.76 76.777C354.76 76.056 354.863 75.438 354.863 74.717C354.76 73.069 354.76 71.318 354.76 69.567C354.76 64.211 354.76 58.958 352.597 54.014C351.464 51.439 351.361 48.658 351.258 45.98C351.155 44.641 351.155 43.302 350.949 42.066C350.331 37.225 349.61 32.384 348.992 27.543C348.477 23.526 347.962 19.303 347.344 15.286C347.241 14.565 347.138 13.947 347.138 13.432C347.138 7.97299 349.61 3.956 353.421 3.956C355.069 3.956 357.335 6.016 357.335 7.355C357.232 9.41499 357.129 11.269 357.129 13.226C357.129 20.848 357.85 28.985 359.292 37.843C359.704 40.83 360.219 43.611 360.837 46.495C361.558 50.409 362.279 54.529 362.794 58.443C363.103 60.812 363.103 63.696 363.206 66.683C363.309 73.687 364.03 78.734 364.133 78.734C365.884 78.734 368.974 77.498 372.476 76.262C376.184 74.717 380.407 73.172 383.6 73.172C385.763 73.172 388.029 73.481 390.192 74.305C395.033 75.85 399.668 77.189 404.406 78.425C407.805 79.352 411.307 80.382 414.5 81.309C416.663 82.03 418.826 84.193 418.826 85.841C418.826 88.004 417.487 89.652 415.427 89.652Z" fill="#FFC10F"/>
<path d="M181.742 83.266C179.785 83.266 178.034 81.927 177.725 80.073L180.403 79.146C177.519 85.635 177.21 75.335 177.21 72.245C177.21 71.73 177.21 71.318 177.313 70.494C177.416 69.979 177.416 69.567 177.416 69.052C177.416 68.846 177.416 68.846 177.313 68.537C176.798 67.713 176.592 67.095 176.592 66.477C176.592 66.065 176.695 65.55 176.901 65.035C176.901 63.696 176.798 62.357 176.592 61.018C176.489 59.679 176.283 58.134 176.283 56.692C176.283 54.838 178.034 53.293 180.094 53.293C182.772 53.293 184.42 55.456 184.42 58.34L182.154 57.413C182.36 57.31 182.566 57.207 182.772 57.207L182.669 57.31C183.905 53.705 185.038 50.203 186.068 46.495C183.802 45.568 180.3 44.023 180.3 41.448C180.3 39.594 182.051 38.152 184.111 38.152C185.656 38.152 187.098 38.77 188.334 39.285C188.849 39.491 189.467 39.8 189.776 39.903L187.716 40.624C188.643 35.371 190.806 25.586 193.175 20.951C193.587 19.921 194.926 19.303 196.162 19.303C198.428 19.303 199.87 21.054 199.87 23.423C199.87 24.968 199.252 26.719 198.737 28.161C198.325 29.294 198.119 30.118 197.913 31.251C197.295 34.65 196.471 38.152 195.647 41.757C196.677 42.066 197.604 42.272 198.531 42.375C201.003 42.684 203.063 43.405 205.226 44.023C205.947 44.229 206.668 44.538 207.183 44.641L205.329 45.98C204.814 44.332 204.299 43.096 203.166 40.418C202.136 38.255 201.106 35.886 200.591 33.723C198.737 27.028 196.677 20.642 194.617 15.389C194.514 14.977 194.411 14.771 194.308 14.462C193.896 13.02 193.587 12.402 193.381 12.196C191.63 10.239 190.909 8.385 190.909 6.11899C190.909 2.926 192.454 0.968999 195.338 0.968999C197.604 0.968999 199.355 2.617 199.355 4.78C199.355 5.19199 199.355 5.398 199.149 6.016C199.046 6.428 199.046 6.63399 199.046 6.84V7.149L197.192 6.11899C199.973 5.707 202.651 7.355 202.651 9.724C202.651 10.239 202.445 10.857 202.136 11.475C202.136 12.299 202.342 13.123 202.857 14.668C203.166 15.389 203.269 15.801 203.372 16.11C204.917 20.333 207.698 28.161 208.625 32.178C208.934 33.311 209.14 34.135 209.552 34.856C211.406 38.358 212.745 42.066 213.878 46.701C215.526 47.113 217.792 48.04 217.792 50.203C217.792 51.336 216.762 52.469 215.526 53.087C216.453 56.486 216.762 59.885 216.968 63.284C217.277 66.065 217.483 68.743 217.998 71.318C219.028 73.069 220.161 77.498 220.161 79.661C220.161 81.515 218.204 82.957 215.938 82.957C214.908 82.957 213.672 82.648 213.26 82.133C211.303 80.279 210.376 76.365 209.037 65.035C208.419 59.782 207.801 54.735 206.874 52.16C206.153 51.954 205.226 51.645 203.887 51.233C201.209 50.409 198.634 49.482 196.368 49.276C195.441 49.173 194.617 49.07 193.69 48.864C193.278 50.409 192.763 52.057 192.248 53.602C191.321 56.486 190.909 57.825 190.394 59.473C189.982 61.224 188.746 62.666 187.098 63.799C186.377 64.211 185.862 65.241 185.244 66.477C185.141 66.683 185.038 66.786 184.935 66.992C185.244 68.949 185.553 70.906 185.553 72.863C185.553 73.172 185.553 73.378 185.45 73.996C185.347 74.202 185.347 74.305 185.347 74.511C185.347 74.82 185.347 75.129 185.45 75.644C185.45 76.056 185.553 76.365 185.553 76.674C186.171 77.292 186.48 77.91 186.48 78.837C186.48 79.764 186.068 80.588 185.244 81.412V79.97L185.347 80.073L185.45 81.412C184.626 82.545 183.184 83.266 181.742 83.266ZM419.884 22.599C414.734 22.599 409.584 18.891 410.202 15.389C410.408 14.359 411.438 13.741 413.189 13.123C413.807 12.917 413.807 12.917 414.219 12.711L415.043 12.505C419.884 12.505 423.592 15.08 423.592 18.685C423.592 20.642 421.738 22.599 419.884 22.599ZM430.287 75.953C428.33 76.983 424.519 75.335 423.592 73.275C421.017 67.198 418.339 61.121 416.794 54.941C415.146 48.143 414.425 41.036 413.601 34.032V33.929C413.601 31.457 415.764 29.706 419.06 29.5C419.781 30.427 419.781 30.427 420.193 30.942C421.429 32.281 421.944 33.002 422.047 33.723C422.665 36.71 423.18 39.594 423.695 42.581C424.622 47.731 425.549 52.984 426.888 58.031C427.3 59.885 427.918 61.327 429.566 64.623C430.39 66.271 431.317 68.228 431.935 69.979L431.832 69.876C432.038 70.185 432.141 70.597 432.141 71.112C432.141 73.79 432.141 75.026 430.287 75.953Z" fill="#28BC42"/>
</svg>
